<svg width="91" height="27" viewBox="0 0 91 27" fill="none" xmlns="http://www.w3.org/2000/svg">
<path d="M10.368 7.808C10.368 7.36 10.2187 6.976 9.91999 6.656C9.62132 6.336 9.21599 6.10134 8.70399 5.952C8.21332 5.78134 7.64799 5.696 7.00799 5.696C6.17599 5.696 5.45066 5.90934 4.83199 6.336C4.23466 6.74134 3.93599 7.232 3.93599 7.808H1.08799C1.08799 6.99734 1.35466 6.24 1.88799 5.536C2.42132 4.832 3.14666 4.27734 4.06399 3.872C4.98132 3.46667 5.96266 3.264 7.00799 3.264C8.07466 3.264 9.07732 3.424 10.016 3.744C10.976 4.064 11.744 4.576 12.32 5.28C12.9173 5.96267 13.216 6.80534 13.216 7.808V20.16H10.368V7.808ZM11.712 7.808C11.712 9.344 11.3173 10.5173 10.528 11.328C9.73866 12.1387 8.56532 12.544 7.00799 12.544H6.23999C5.17332 12.544 4.34132 12.8 3.74399 13.312C3.14666 13.824 2.84799 14.5173 2.84799 15.392C2.84799 15.968 2.97599 16.4587 3.23199 16.864C3.50932 17.2693 3.90399 17.5893 4.41599 17.824C4.92799 18.0373 5.53599 18.144 6.23999 18.144C6.98666 18.144 7.66932 18.0053 8.28799 17.728C8.92799 17.4293 9.42932 17.056 9.79199 16.608C10.176 16.1387 10.368 15.6267 10.368 15.072H10.4C10.4 16.096 10.1867 17.024 9.75999 17.856C9.33332 18.688 8.74666 19.3493 7.99999 19.84C7.27466 20.3093 6.46399 20.544 5.56799 20.544C4.52266 20.544 3.57332 20.32 2.71999 19.872C1.88799 19.424 1.22666 18.8053 0.735988 18.016C0.245322 17.2267 -1.16825e-05 16.352 -1.16825e-05 15.392C-1.16825e-05 13.7707 0.575988 12.512 1.72799 11.616C2.90132 10.72 4.40532 10.272 6.23999 10.272H7.00799C8.09599 10.272 8.92799 10.0587 9.50399 9.632C10.08 9.20534 10.368 8.59734 10.368 7.808H11.712ZM29.527 15.616C29.527 16.704 29.2177 17.632 28.599 18.4C28.0017 19.1467 27.2017 19.7013 26.199 20.064C25.1963 20.4267 24.1083 20.5867 22.935 20.544C21.527 20.5013 20.3003 20.2027 19.255 19.648C18.231 19.0933 17.4417 18.3893 16.887 17.536C16.3537 16.6827 16.087 15.776 16.087 14.816H18.935C18.935 15.6907 19.2977 16.4587 20.023 17.12C20.7697 17.76 21.7403 18.1013 22.935 18.144C23.703 18.1653 24.375 18.0693 24.951 17.856C25.527 17.6213 25.9537 17.312 26.231 16.928C26.5297 16.5227 26.679 16.0853 26.679 15.616C26.679 14.9973 26.4017 14.5067 25.847 14.144C25.2923 13.7813 24.2577 13.44 22.743 13.12C20.8443 12.7787 19.3297 12.2347 18.199 11.488C17.0897 10.7413 16.535 9.568 16.535 7.968C16.535 7.11467 16.8123 6.336 17.367 5.632C17.9217 4.90667 18.679 4.33067 19.639 3.904C20.6203 3.47734 21.687 3.264 22.839 3.264C24.119 3.264 25.2283 3.52 26.167 4.032C27.127 4.544 27.8523 5.19467 28.343 5.984C28.8337 6.752 29.079 7.54134 29.079 8.352H26.231C26.231 7.79734 26.0923 7.328 25.815 6.944C25.5377 6.53867 25.143 6.22934 24.631 6.016C24.119 5.78134 23.5217 5.664 22.839 5.664C22.2203 5.664 21.6443 5.77067 21.111 5.984C20.5777 6.176 20.151 6.45334 19.831 6.816C19.5323 7.15734 19.383 7.54134 19.383 7.968C19.383 8.56534 19.6603 9.04534 20.215 9.408C20.7697 9.74934 21.815 10.08 23.351 10.4C25.1643 10.7627 26.647 11.3387 27.799 12.128C28.951 12.9173 29.527 14.08 29.527 15.616ZM36.8222 16C36.8222 16.576 36.9502 17.0027 37.2062 17.28C37.4836 17.5573 37.8782 17.696 38.3902 17.696H39.6382V20.16H38.3582C37.4196 20.16 36.6196 20.0107 35.9582 19.712C35.2969 19.392 34.7956 18.9227 34.4542 18.304C34.1342 17.6853 33.9742 16.9387 33.9742 16.064V8.96C33.9742 8.32 34.1769 7.776 34.5822 7.328C35.0089 6.88 35.6382 6.54934 36.4702 6.336C37.3236 6.12267 38.3796 6.02667 39.6382 6.048V6.08C39.2116 6.08 38.8382 6.112 38.5182 6.176C38.2196 6.21867 37.9636 6.304 37.7502 6.432C37.4089 6.64534 37.1636 6.95467 37.0142 7.36C36.8862 7.744 36.8222 8.27734 36.8222 8.96V16ZM39.6382 3.648V6.08H31.1582V3.648H39.6382ZM36.8222 1.90735e-06V4.64H33.9742V1.90735e-06H36.8222ZM49.15 17.312C47.6993 17.312 46.4193 17.024 45.31 16.448C44.2007 15.872 43.3367 15.072 42.718 14.048C42.0993 13.0027 41.79 11.808 41.79 10.464C41.79 9.22667 42.1207 8.08534 42.782 7.04C43.4433 5.99467 44.3393 5.17334 45.47 4.576C46.6007 3.95734 47.8273 3.648 49.15 3.648C50.5153 3.648 51.7633 3.95734 52.894 4.576C54.0247 5.17334 54.9207 5.99467 55.582 7.04C56.2433 8.08534 56.574 9.22667 56.574 10.464C56.574 11.7013 56.2433 12.8533 55.582 13.92C54.9207 14.9653 54.0247 15.7973 52.894 16.416C51.7633 17.0133 50.5153 17.312 49.15 17.312ZM49.15 15.008C50.0247 15.008 50.8033 14.8053 51.486 14.4C52.19 13.9733 52.734 13.4187 53.118 12.736C53.5233 12.032 53.726 11.2747 53.726 10.464C53.726 9.67467 53.5233 8.93867 53.118 8.256C52.734 7.57334 52.19 7.04 51.486 6.656C50.8033 6.272 50.0247 6.08 49.15 6.08C48.2967 6.08 47.518 6.272 46.814 6.656C46.1313 7.04 45.598 7.57334 45.214 8.256C44.83 8.93867 44.638 9.67467 44.638 10.464C44.638 11.296 44.8087 12.0533 45.15 12.736C45.5127 13.4187 46.0353 13.9733 46.718 14.4C47.4007 14.8053 48.2113 15.008 49.15 15.008ZM49.214 26.048C47.8273 26.048 46.5793 25.792 45.47 25.28C44.3607 24.768 43.486 24.0427 42.846 23.104C42.2273 22.1867 41.918 21.152 41.918 20H44.766C44.766 20.6613 44.9473 21.2587 45.31 21.792C45.6727 22.3253 46.1847 22.752 46.846 23.072C47.5287 23.4133 48.3287 23.584 49.246 23.584C50.206 23.584 51.0273 23.424 51.71 23.104C52.3927 22.784 52.894 22.3787 53.214 21.888C53.5553 21.3973 53.726 20.8747 53.726 20.32C53.726 19.6587 53.5553 19.104 53.214 18.656C52.894 18.208 52.3927 17.8773 51.71 17.664C51.0273 17.4293 50.174 17.312 49.15 17.312V17.28C50.7927 17.152 52.158 17.2053 53.246 17.44C54.3553 17.6533 55.1873 18.0373 55.742 18.592C56.2967 19.1253 56.574 19.8187 56.574 20.672C56.574 21.6747 56.254 22.5813 55.614 23.392C54.974 24.224 54.0993 24.8747 52.99 25.344C51.8807 25.8133 50.622 26.048 49.214 26.048ZM51.998 4.512L54.686 1.824L56.542 3.68L53.854 6.368L51.998 4.512ZM72.3482 15.616C72.3482 16.704 72.0389 17.632 71.4202 18.4C70.8229 19.1467 70.0229 19.7013 69.0202 20.064C68.0176 20.4267 66.9296 20.5867 65.7562 20.544C64.3482 20.5013 63.1216 20.2027 62.0762 19.648C61.0522 19.0933 60.2629 18.3893 59.7082 17.536C59.1749 16.6827 58.9082 15.776 58.9082 14.816H61.7562C61.7562 15.6907 62.1189 16.4587 62.8442 17.12C63.5909 17.76 64.5616 18.1013 65.7562 18.144C66.5242 18.1653 67.1962 18.0693 67.7722 17.856C68.3482 17.6213 68.7749 17.312 69.0522 16.928C69.3509 16.5227 69.5002 16.0853 69.5002 15.616C69.5002 14.9973 69.2229 14.5067 68.6682 14.144C68.1136 13.7813 67.0789 13.44 65.5642 13.12C63.6656 12.7787 62.1509 12.2347 61.0202 11.488C59.9109 10.7413 59.3562 9.568 59.3562 7.968C59.3562 7.11467 59.6336 6.336 60.1882 5.632C60.7429 4.90667 61.5002 4.33067 62.4602 3.904C63.4416 3.47734 64.5082 3.264 65.6602 3.264C66.9402 3.264 68.0496 3.52 68.9882 4.032C69.9482 4.544 70.6736 5.19467 71.1642 5.984C71.6549 6.752 71.9002 7.54134 71.9002 8.352H69.0522C69.0522 7.79734 68.9136 7.328 68.6362 6.944C68.3589 6.53867 67.9642 6.22934 67.4522 6.016C66.9402 5.78134 66.3429 5.664 65.6602 5.664C65.0416 5.664 64.4656 5.77067 63.9322 5.984C63.3989 6.176 62.9722 6.45334 62.6522 6.816C62.3536 7.15734 62.2042 7.54134 62.2042 7.968C62.2042 8.56534 62.4816 9.04534 63.0362 9.408C63.5909 9.74934 64.6362 10.08 66.1722 10.4C67.9856 10.7627 69.4682 11.3387 70.6202 12.128C71.7722 12.9173 72.3482 14.08 72.3482 15.616ZM74.9335 11.904C74.9335 10.1973 75.2428 8.69334 75.8615 7.392C76.4802 6.09067 77.3548 5.07734 78.4855 4.352C79.6375 3.62667 80.9708 3.264 82.4855 3.264C84.0428 3.264 85.3868 3.62667 86.5175 4.352C87.6482 5.07734 88.5122 6.13334 89.1095 7.52C89.7282 8.88534 90.0375 10.528 90.0375 12.448H76.5655V10.176H88.3095L87.1575 11.2C87.0935 10.112 86.8482 9.152 86.4215 8.32C86.0162 7.488 85.4615 6.848 84.7575 6.4C84.0748 5.93067 83.3175 5.696 82.4855 5.696C81.5682 5.696 80.7468 5.96267 80.0215 6.496C79.3175 7.008 78.7628 7.73334 78.3575 8.672C77.9735 9.61067 77.7815 10.688 77.7815 11.904C77.7815 13.12 77.9735 14.1973 78.3575 15.136C78.7628 16.0747 79.3175 16.8107 80.0215 17.344C80.7468 17.856 81.5682 18.112 82.4855 18.112C83.4668 18.112 84.3308 17.8027 85.0775 17.184C85.8455 16.5653 86.4108 15.7227 86.7735 14.656H89.7175C89.2695 16.4693 88.4055 17.9093 87.1255 18.976C85.8455 20.0213 84.2988 20.544 82.4855 20.544C80.9708 20.544 79.6375 20.1813 78.4855 19.456C77.3548 18.7307 76.4802 17.7173 75.8615 16.416C75.2428 15.1147 74.9335 13.6107 74.9335 11.904Z" fill="white" style="fill:white;fill-opacity:1;"/>
</svg>
